<svg xmlns="http://www.w3.org/2000/svg" xmlns:xlink="http://www.w3.org/1999/xlink" viewBox="0 0 115.74 88.63"><defs><style>.cls-1{mask:url(#mask);filter:url(#luminosity-noclip-3);}.cls-2,.cls-4,.cls-6{mix-blend-mode:multiply;}.cls-2{fill:url(#linear-gradient);}.cls-3{mask:url(#mask-2);filter:url(#luminosity-noclip-4);}.cls-4{fill:url(#linear-gradient-2);}.cls-5{isolation:isolate;}.cls-6{opacity:0.7;}.cls-43,.cls-7{fill:#fff;}.cls-7{opacity:0;}.cls-8{fill:#fbf9f8;opacity:0.05;}.cls-9{fill:#f7f3f0;opacity:0.1;}.cls-10{fill:#f3ede9;opacity:0.14;}.cls-11{fill:#eee7e2;opacity:0.19;}.cls-12{fill:#eae1db;opacity:0.24;}.cls-13{fill:#e6dcd3;opacity:0.29;}.cls-14{fill:#e2d6cc;opacity:0.33;}.cls-15{fill:#ded0c5;opacity:0.38;}.cls-16{fill:#dacabd;opacity:0.43;}.cls-17{fill:#d6c4b6;opacity:0.48;}.cls-18{fill:#d1beaf;opacity:0.52;}.cls-19{fill:#cdb8a8;opacity:0.57;}.cls-20{fill:#c9b2a0;opacity:0.62;}.cls-21{fill:#c5ac99;opacity:0.67;}.cls-22{fill:#c1a692;opacity:0.71;}.cls-23{fill:#bda18a;opacity:0.76;}.cls-24{fill:#b99b83;opacity:0.81;}.cls-25{fill:#b4957c;opacity:0.86;}.cls-26{fill:#b08f75;opacity:0.9;}.cls-27{fill:#ac896d;opacity:0.95;}.cls-28{fill:#a88366;}.cls-29{fill:url(#linear-gradient-3);}.cls-30,.cls-33,.cls-36,.cls-38{fill:#6e6e6e;}.cls-30,.cls-33,.cls-36,.cls-37,.cls-38,.cls-44{mix-blend-mode:color-burn;}.cls-30,.cls-37{opacity:0.3;}.cls-31{fill:#d18b22;}.cls-32{fill:url(#linear-gradient-4);}.cls-33{opacity:0.1;}.cls-34{fill:url(#linear-gradient-5);}.cls-35{fill:url(#linear-gradient-6);}.cls-36,.cls-44{opacity:0.2;}.cls-37{fill:#8f8f8f;}.cls-38{opacity:0.4;}.cls-39{mask:url(#mask-3);}.cls-40,.cls-42,.cls-43{mix-blend-mode:soft-light;}.cls-40,.cls-42{opacity:0.8;}.cls-40{fill:url(#linear-gradient-7);}.cls-41{mask:url(#mask-4);}.cls-42{fill:url(#linear-gradient-8);}.cls-43{opacity:0.5;}.cls-44{fill:url(#radial-gradient);}.cls-45{filter:url(#luminosity-noclip-2);}.cls-46{filter:url(#luminosity-noclip);}</style><filter id="luminosity-noclip" x="23.07" y="-8237.87" width="14.15" height="32766" filterUnits="userSpaceOnUse" color-interpolation-filters="sRGB"><feFlood flood-color="#fff" result="bg"/><feBlend in="SourceGraphic" in2="bg"/></filter><mask id="mask" x="23.07" y="-8237.87" width="14.15" height="32766" maskUnits="userSpaceOnUse"><g class="cls-46"/></mask><linearGradient id="linear-gradient" x1="27.18" y1="28.76" x2="30.5" y2="54" gradientUnits="userSpaceOnUse"><stop offset="0"/><stop offset="1" stop-color="#fff"/></linearGradient><filter id="luminosity-noclip-2" x="39.43" y="-8237.87" width="6.71" height="32766" filterUnits="userSpaceOnUse" color-interpolation-filters="sRGB"><feFlood flood-color="#fff" result="bg"/><feBlend in="SourceGraphic" in2="bg"/></filter><mask id="mask-2" x="39.43" y="-8237.87" width="6.71" height="32766" maskUnits="userSpaceOnUse"><g class="cls-45"/></mask><linearGradient id="linear-gradient-2" x1="40.44" y1="27.01" x2="43.74" y2="52.17" xlink:href="#linear-gradient"/><linearGradient id="linear-gradient-3" x1="14.57" y1="41" x2="100.99" y2="41" gradientUnits="userSpaceOnUse"><stop offset="0" stop-color="#ffa91f"/><stop offset="1" stop-color="#ff8c2e"/></linearGradient><linearGradient id="linear-gradient-4" y1="29.31" x2="115.74" y2="29.31" gradientUnits="userSpaceOnUse"><stop offset="0" stop-color="#ffd945"/><stop offset="1" stop-color="#ff9d09"/></linearGradient><linearGradient id="linear-gradient-5" x1="10.12" y1="59.19" x2="105.45" y2="59.19" gradientTransform="translate(-0.49 2.29) rotate(-0.73)" gradientUnits="userSpaceOnUse"><stop offset="0.17" stop-color="#ffc420"/><stop offset="1" stop-color="#ffb820"/></linearGradient><linearGradient id="linear-gradient-6" x1="10.59" y1="55.43" x2="104.98" y2="55.43" gradientTransform="translate(-0.49 2.29) rotate(-0.73)" gradientUnits="userSpaceOnUse"><stop offset="0" stop-color="#ffa81d"/><stop offset="1" stop-color="#ff671b"/></linearGradient><filter id="luminosity-noclip-3" x="23.07" y="26.01" width="14.15" height="27.72" filterUnits="userSpaceOnUse" color-interpolation-filters="sRGB"><feFlood flood-color="#fff" result="bg"/><feBlend in="SourceGraphic" in2="bg"/></filter><mask id="mask-3" x="23.07" y="26.01" width="14.15" height="27.72" maskUnits="userSpaceOnUse"><g class="cls-1"><path class="cls-2" d="M37.11,52.22c.26.19,0,0,0,0l-.33,0-2.59.23-2.33.23c-.75.07-1.48.16-2.21.25h-.1c-1.08.13-2.13.26-3.13.4l-.77.12L24,53.72s-1.37-1.07-.28-2.22L23.34,48l-.27-2c2.58-2.82,4.57-9.05,6-20a28.92,28.92,0,0,0,5.39,4.79L34.68,33l2.15,17S35.51,51.07,37.11,52.22Z"/></g></mask><linearGradient id="linear-gradient-7" x1="27.18" y1="28.76" x2="30.5" y2="54" gradientUnits="userSpaceOnUse"><stop offset="0" stop-color="#fff"/><stop offset="1" stop-color="#fff"/></linearGradient><filter id="luminosity-noclip-4" x="39.43" y="33.25" width="6.71" height="18.63" filterUnits="userSpaceOnUse" color-interpolation-filters="sRGB"><feFlood flood-color="#fff" result="bg"/><feBlend in="SourceGraphic" in2="bg"/></filter><mask id="mask-4" x="39.43" y="33.25" width="6.71" height="18.63" maskUnits="userSpaceOnUse"><g class="cls-3"><path class="cls-4" d="M46.14,51.63h0c-.92,0-1.81.09-2.69.15l-1.63.09a1.36,1.36,0,0,1-.29-2.25c-.08-.69-1.83-14.53-1.83-14.53l-.23-1.84a9.87,9.87,0,0,0,4.42.28l.22,1.72,1.78,14.12C44.7,50.38,46.14,51.63,46.14,51.63Z"/></g></mask><linearGradient id="linear-gradient-8" x1="40.44" y1="27.01" x2="43.74" y2="52.17" xlink:href="#linear-gradient-7"/><radialGradient id="radial-gradient" cx="57.87" cy="32.3" r="46.86" gradientUnits="userSpaceOnUse"><stop offset="0" stop-color="#fff"/><stop offset="0.17" stop-color="#f0f0f0"/><stop offset="0.48" stop-color="#c9c9c9"/><stop offset="0.92" stop-color="#8a8a8a"/><stop offset="1" stop-color="#7d7d7d"/></radialGradient></defs><g class="cls-5"><g id="Layer_2" data-name="Layer 2"><g id="Layer_1-2" data-name="Layer 1"><g class="cls-6"><ellipse class="cls-7" cx="56.96" cy="79.29" rx="50.96" ry="9.35"/><ellipse class="cls-8" cx="56.96" cy="79.29" rx="49.01" ry="8.94"/><ellipse class="cls-9" cx="56.96" cy="79.29" rx="47.05" ry="8.52"/><ellipse class="cls-10" cx="56.96" cy="79.29" rx="45.1" ry="8.11"/><ellipse class="cls-11" cx="56.96" cy="79.29" rx="43.14" ry="7.7"/><ellipse class="cls-12" cx="56.96" cy="79.29" rx="41.18" ry="7.29"/><path class="cls-13" d="M96.19,79.29c0,3.8-17.56,6.88-39.23,6.88s-39.23-3.08-39.23-6.88S35.29,72.4,57,72.4,96.19,75.49,96.19,79.29Z"/><path class="cls-14" d="M94.23,79.29c0,3.57-16.68,6.47-37.27,6.47s-37.27-2.9-37.27-6.47S36.37,72.81,57,72.81,94.23,75.71,94.23,79.29Z"/><path class="cls-15" d="M92.28,79.29c0,3.34-15.81,6.06-35.32,6.06s-35.32-2.72-35.32-6.06S37.45,73.23,57,73.23,92.28,75.94,92.28,79.29Z"/><path class="cls-16" d="M90.32,79.29c0,3.12-14.93,5.65-33.36,5.65S23.6,82.41,23.6,79.29,38.53,73.64,57,73.64,90.32,76.17,90.32,79.29Z"/><path class="cls-17" d="M88.37,79.29c0,2.89-14.06,5.24-31.41,5.24s-31.41-2.35-31.41-5.24S39.61,74.05,57,74.05,88.37,76.39,88.37,79.29Z"/><path class="cls-18" d="M86.41,79.29c0,2.66-13.18,4.83-29.45,4.83S27.51,82,27.51,79.29,40.69,74.46,57,74.46,86.41,76.62,86.41,79.29Z"/><ellipse class="cls-19" cx="56.96" cy="79.29" rx="27.5" ry="4.42"/><path class="cls-20" d="M82.5,79.29c0,2.21-11.43,4-25.54,4s-25.54-1.8-25.54-4,11.43-4,25.54-4S82.5,77.07,82.5,79.29Z"/><path class="cls-21" d="M80.55,79.29c0,2-10.56,3.6-23.59,3.6s-23.59-1.62-23.59-3.6,10.56-3.6,23.59-3.6S80.55,77.3,80.55,79.29Z"/><path class="cls-22" d="M78.59,79.29c0,1.76-9.68,3.18-21.63,3.18s-21.63-1.42-21.63-3.18S45,76.1,57,76.1,78.59,77.53,78.59,79.29Z"/><path class="cls-23" d="M76.64,79.29c0,1.53-8.81,2.77-19.68,2.77s-19.68-1.24-19.68-2.77S46.09,76.51,57,76.51,76.64,77.75,76.64,79.29Z"/><ellipse class="cls-24" cx="56.96" cy="79.29" rx="17.72" ry="2.37"/><path class="cls-25" d="M72.73,79.29c0,1.08-7.06,1.95-15.77,1.95s-15.77-.87-15.77-1.95,7.06-2,15.77-2S72.73,78.21,72.73,79.29Z"/><path class="cls-26" d="M70.77,79.29c0,.85-6.18,1.54-13.81,1.54s-13.81-.69-13.81-1.54S49.33,77.74,57,77.74,70.77,78.43,70.77,79.29Z"/><path class="cls-27" d="M68.82,79.29c0,.62-5.31,1.13-11.86,1.13S45.1,79.91,45.1,79.29,50.41,78.15,57,78.15,68.82,78.66,68.82,79.29Z"/><path class="cls-28" d="M66.86,79.29c0,.4-4.43.72-9.9.72s-9.9-.32-9.9-.72,4.43-.73,9.9-.73S66.86,78.89,66.86,79.29Z"/></g><path class="cls-29" d="M101,58.05c-1.88-.24-4.9-.37-8.71-.44-23-.46-74.77,1.5-74.77,1.5l-2.58-3.42-.36-.47a28.91,28.91,0,0,0,1.36-8.3c0-.37,0-.77,0-1.16A44.53,44.53,0,0,0,15.41,38a57.39,57.39,0,0,0,5.35,6.2c.67.67,1.37,1.33,2.11,2,7,6,16.77,9.82,19.6-12.53.06-.37.1-.76.15-1.16.17-1.55.3-3.21.43-5a1.83,1.83,0,0,1-1.38-.91,2.18,2.18,0,0,1-.31-1.12,2.27,2.27,0,0,1,.28-1.14h0a2.26,2.26,0,0,1,.37-.48,1.67,1.67,0,0,1,1.12-.49A2,2,0,0,1,45,25.41a2.16,2.16,0,0,1-.52,1.47,1.52,1.52,0,0,1-.57.47c.2.47.43,1,.7,1.58.49,1.09,1.12,2.34,1.86,3.68,5.21,9.53,15.83,22.78,25.35.52h0q.34-.83.69-1.71C73,30,73.56,28.54,74.1,26.9A2.06,2.06,0,0,1,72.92,25a2.16,2.16,0,0,1,.21-1v0a2,2,0,0,1,.93-1h0a1.53,1.53,0,0,1,.64-.14,1.78,1.78,0,0,1,.47.06,2.18,2.18,0,0,1,.63,3.64,1.94,1.94,0,0,1-.68.39c.12.46.26,1,.43,1.62.31,1.12.7,2.45,1.18,3.86,3,9.18,9.24,22.45,16.74,13.22a20.26,20.26,0,0,0,1.64-2.35,47.45,47.45,0,0,0,3.32-6.88,43.67,43.67,0,0,0,0,6.36c.07,1.08.15,2.23.25,3.41.18,2.19.44,4.45.78,6.47.07.48.16,1,.26,1.42A15.29,15.29,0,0,0,101,58.05Z"/><path class="cls-30" d="M75.19,22.94a2.08,2.08,0,0,1,1.34,2,2.06,2.06,0,0,1-.72,1.64C76,25,75.85,23.45,75.19,22.94Z"/><path class="cls-30" d="M99.5,52.68a13.48,13.48,0,0,1-1.31,1.83,10.59,10.59,0,0,1-5.9,3.1c-23-.47-74.78,1.5-74.78,1.5l-2.94-3.89A30.36,30.36,0,0,0,16,45.76a5.87,5.87,0,0,0,4.79-1.55c7.06,7,18.93,14.38,21.86-11.72a11.51,11.51,0,0,0,1.74-2.64,2.33,2.33,0,0,0,.2-.92c4.17,9,16.91,30.47,27.93,2.49a2.89,2.89,0,0,0,2.7-1.34,10.29,10.29,0,0,0,.37-1.49C78,37.52,85.05,59.8,94.47,44.34a4.53,4.53,0,0,0,4-2.71C98.59,44.73,99,49.59,99.5,52.68Z"/><path class="cls-31" d="M101,58.06c.57,1.06,1.24,1.46,2,.86C103.49,58.55,102.71,58.27,101,58.06Z"/><path class="cls-32" d="M115.74,32.08a2.42,2.42,0,0,1-2.18,2.6.82.82,0,0,1-.22,0,1.86,1.86,0,0,1-.91-.33s0,0,0,0a.61.61,0,0,1-.15-.12,63.23,63.23,0,0,0-4.33,12.07C107,49.79,106.37,53,106,55c-.24,1.39-.35,2.22-.35,2.22a1.27,1.27,0,0,0-.48-.91,7.71,7.71,0,0,0-2.87-1.48c-.63-.21-1.34-.43-2.15-.62l-.18,0-.23-.06c-.79-.2-1.67-.38-2.62-.55h0c-.28,0-.55-.11-.84-.14-.64-.12-1.3-.22-2-.34-2.58-.38-5.53-.71-8.78-1l-2-.17-1.08-.07-1.1-.08-2.19-.13-1.48-.07-1.5-.08-4.27-.14h-.53l-1.66,0c-.94,0-1.91,0-2.89-.06h-1.3c-2.46,0-5,0-7.54,0h-.38l-4,.08c-2.54.07-5,.16-7.41.29h0c-.92,0-1.81.09-2.69.15l-1.63.09L40.7,52l-2,.15-1.56.13-.33,0-2.59.23-2.33.23c-.75.07-1.48.16-2.21.25h-.1c-1.08.13-2.13.26-3.13.4l-.77.12L24,53.72c-2.86.46-5.37,1-7.41,1.5h0c-.45.11-.87.23-1.27.36l-.4.11-.76.26a3,3,0,0,0-.53.19l-.48.19a6.47,6.47,0,0,0-.88.38,5.34,5.34,0,0,0-1.47,1,1.26,1.26,0,0,0-.45.91c0-.12-.19-1.14-.5-2.73S9,51.94,8.33,49.37A67.57,67.57,0,0,0,3.39,36a.46.46,0,0,1-.05-.1,1.88,1.88,0,0,1-1.1.38A2.39,2.39,0,0,1,0,33.8a2.47,2.47,0,0,1,1.89-2.56,1.45,1.45,0,0,1,.29,0,1.14,1.14,0,0,1,.26,0,2.1,2.1,0,0,1,1.41.84,2.78,2.78,0,0,1,.57,1.67,2.8,2.8,0,0,1-.6,1.79l0,0c4.55,5.33,8.58,9.57,12.08,11.36,2.64,1.35,5,1.3,6.94-.74a1.17,1.17,0,0,0,.2-.19c2.58-2.82,4.57-9.05,6-20a28.92,28.92,0,0,0,5.39,4.79,17.68,17.68,0,0,0,5,2.45,10.13,10.13,0,0,0,3,.4,9.18,9.18,0,0,0,1.38-.12,8.52,8.52,0,0,0,2.58-.92c3.48-1.92,6.72-6.73,8.87-16.57A100.34,100.34,0,0,0,56.94,5.41v0a2.79,2.79,0,0,1,0-.32A2.48,2.48,0,0,1,55.2,2.59,2.67,2.67,0,0,1,56.09.51,1.88,1.88,0,0,1,57.37,0a1.74,1.74,0,0,1,1.06.31,2.63,2.63,0,0,1,1.18,2.22,2.65,2.65,0,0,1-.92,2.09,1.93,1.93,0,0,1-.82.44,1.29,1.29,0,0,1,0,.25c2.61,20.6,8.27,27.09,13.87,27.82h0a10,10,0,0,0,4.95-.68c5-1.88,9.08-6.7,9.5-7.25a.08.08,0,0,0,0,0c1.78,12,4.2,18.25,7.2,20.51a5,5,0,0,0,5.24.54c3.75-1.5,8.13-6.3,13.12-12.47a0,0,0,0,0,0,0,2.83,2.83,0,0,1-.51-1.58,2.56,2.56,0,0,1,.05-.55,2.6,2.6,0,0,1,.78-1.47,1.89,1.89,0,0,1,1.35-.57h.2a.52.52,0,0,1,.21,0A2.45,2.45,0,0,1,115.74,32.08Z"/><path class="cls-33" d="M107.92,46.25C107,49.8,106.37,53,106,55a49.54,49.54,0,0,0-9.5-3.3c-9.15-1.61-23.22-2.39-38.6-2.17-17,.26-39.37,3.11-48.06,6.37-.35-1.65-.86-3.94-1.53-6.5a17,17,0,0,0-.59-7.06c4.45,4.63,8.16,7.31,11.6,7.26,5.31-.08,8.66-6.32,10.73-20.16,2.64,2.49,7.35,6,12.39,6,7.48-.11,12.53-7.81,15-22.91,2.84,15,8.06,22.57,15.54,22.46,5-.08,9.66-3.82,12.25-6.36,2.39,13.76,5.88,19.93,11.2,19.85,3.41,0,7.06-2.84,11.41-7.59A10.83,10.83,0,0,0,107.92,46.25Z"/><path class="cls-34" d="M105.19,56.3c-3.21,3.27-23.08,6.05-47.13,6.41s-44-1.84-47.25-5a1.28,1.28,0,0,0-.45.92h0C10.4,62.3,31.77,65,58.08,64.57s47.63-3.68,47.59-7.35h0A1.29,1.29,0,0,0,105.19,56.3Z"/><path class="cls-35" d="M105.19,56.3c-3.21,3.27-23.08,6.05-47.13,6.41s-44-1.84-47.25-5c1-1.08,3.85-2.1,8-3,8.59-1.87,22.91-3.22,39.13-3.46s30.56.68,39.19,2.3C101.29,54.32,104.13,55.25,105.19,56.3Z"/><path class="cls-36" d="M97.13,53.55C88.54,55.4,74.22,56.74,58,57s-30.56-.68-39.19-2.27c8.59-1.87,22.91-3.22,39.13-3.46S88.5,51.93,97.13,53.55Z"/><path class="cls-37" d="M106,55.29a.52.52,0,0,1,0,.18c-.18,1.1-.26,1.75-.26,1.75a1.29,1.29,0,0,0-.48-.92c-3.28-3.21-23.2-5.4-47.25-5S14,54.39,10.81,57.7a1.3,1.3,0,0,0-.46.93S10.24,58,10,56.82a1.25,1.25,0,0,1,0-.19s0-.07,0-.12c.41-.57.75-1.06.79-1.09C14,52.11,33.87,49.33,57.91,49s44,1.84,47.26,5.05a4.14,4.14,0,0,1,.5.72A5.77,5.77,0,0,1,106,55.29Z"/><path class="cls-38" d="M3.82,35.52l0,0c-.15.16-.3.34-.46.5a.54.54,0,0,0-.05-.11,2,2,0,0,1-1.1.39A2.41,2.41,0,0,1,0,33.8a2.45,2.45,0,0,1,1.9-2.55c-.39,2-.6,5,2.52,2.48A2.86,2.86,0,0,1,3.82,35.52Z"/><path class="cls-33" d="M113.91,29.61c.68,1.87,1.22,4.54-2.53,2a2.16,2.16,0,0,0,0,.56,2.82,2.82,0,0,0,.49,1.58s0,0,0,0l.24.25a94,94,0,0,1-10.92,14.54c-.91,1-.17,2.69-17.53,1.12C99.5,51.77,98.79,53.88,96.3,53.4c4.62.79,7.75,1.78,8.89,2.9a1.29,1.29,0,0,1,.48.92s1.86-13.7,6.58-23a.61.61,0,0,0,.15.12s0,0,0,0a2.23,2.23,0,0,0,.49.24l.17,0a1,1,0,0,0,.25,0v0a1.57,1.57,0,0,0,.23,0,2.41,2.41,0,0,0,2.18-2.59A2.44,2.44,0,0,0,113.91,29.61Z"/><path class="cls-30" d="M42,23.83a1.65,1.65,0,0,1,1.12-.49A2,2,0,0,1,45,25.41a2.17,2.17,0,0,1-.51,1.47C44.43,26.63,44.27,23.81,42,23.83Z"/><path class="cls-36" d="M86.24,25.2a63.28,63.28,0,0,0-3.39,5.56,59.8,59.8,0,0,0-6.47,19c-.1.6-.17,1.18-.25,1.74-5.61-.23-11.74-.32-18.19-.23h-.38l.61-1.75c.48-1.4,1-2.95,1.46-4.67,2.58-9-.48-19.06-3.34-26.35-.34-.86-.67-1.67-1-2.45A100.34,100.34,0,0,0,56.94,5.41v0c.39-.83.72-1.74,1.07-2.57.73-1.76-.85-2.21-1.92-2.31A1.88,1.88,0,0,1,57.37,0a1.74,1.74,0,0,1,1.06.31,2.63,2.63,0,0,1,1.18,2.22,2.65,2.65,0,0,1-.92,2.09,1.93,1.93,0,0,1-.82.44,1.29,1.29,0,0,1,0,.25C63.8,51.75,85.23,26.49,86.24,25.2Z"/><g class="cls-39"><path class="cls-40" d="M37.11,52.22c.26.19,0,0,0,0l-.33,0-2.59.23-2.33.23c-.75.07-1.48.16-2.21.25h-.1c-1.08.13-2.13.26-3.13.4l-.77.12L24,53.72s-1.37-1.07-.28-2.22L23.34,48l-.27-2c2.58-2.82,4.57-9.05,6-20a28.92,28.92,0,0,0,5.39,4.79L34.68,33l2.15,17S35.51,51.07,37.11,52.22Z"/></g><g class="cls-41"><path class="cls-42" d="M46.14,51.63h0c-.92,0-1.81.09-2.69.15l-1.63.09a1.36,1.36,0,0,1-.29-2.25c-.08-.69-1.83-14.53-1.83-14.53l-.23-1.84a9.87,9.87,0,0,0,4.42.28l.22,1.72,1.78,14.12C44.7,50.38,46.14,51.63,46.14,51.63Z"/></g><path class="cls-43" d="M57.41,2.07c0,.68-.37,1.23-.82,1.23s-.82-.55-.82-1.23.36-1.22.82-1.22S57.41,1.4,57.41,2.07Z"/><path class="cls-43" d="M42.18,25.46a1.27,1.27,0,0,1-.51,1.12,2.18,2.18,0,0,1-.31-1.12,2.27,2.27,0,0,1,.28-1.14A1.26,1.26,0,0,1,42.18,25.46Z"/><path class="cls-43" d="M113.7,29.57v0c0,.68-.37,1.22-.83,1.22s-.6-.28-.72-.7a1.89,1.89,0,0,1,1.35-.57Z"/><path class="cls-43" d="M74.76,24.23c0,.68-.36,1.23-.81,1.23s-.83-.55-.83-1.23a1.41,1.41,0,0,1,0-.21v0a2,2,0,0,1,.93-1h0A1.17,1.17,0,0,1,74.76,24.23Z"/><path class="cls-43" d="M3.85,32.06c0,.68-.37,1.21-.82,1.21s-.83-.53-.83-1.21a1.46,1.46,0,0,1,.24-.84A2.1,2.1,0,0,1,3.85,32.06Z"/><path class="cls-44" d="M115.7,32.6a2.85,2.85,0,0,0,0-.51,2.44,2.44,0,0,0-1.83-2.48h0a.52.52,0,0,0-.21,0h-.2a1.89,1.89,0,0,0-1.35.57,2.6,2.6,0,0,0-.78,1.47,2.56,2.56,0,0,0-.05.55,2.86,2.86,0,0,0,.36,1.33l.14.25h0c-5,6.16-9.35,10.95-13.1,12.45-.13-1.65-.25-3.26-.32-4.56h0a35.41,35.41,0,0,1,0-5.2,47.45,47.45,0,0,1-3.32,6.88,20.26,20.26,0,0,1-1.64,2.35c-3-2.26-5.42-8.53-7.2-20.51a.08.08,0,0,1,0,0l-.09.12-.05.06-.14.16-.11.13a.52.52,0,0,1-.1.11c-.07.08-.14.17-.22.25l-.13.15-.2.2-.25.27-.19.2-.29.29c-.07.07-.15.14-.22.22l-.31.29-.17.17-.47.42-.17.15c-.17.16-.36.32-.55.48l-.1.09-.61.49-.05,0c-.22.18-.46.36-.69.53l-.09.06c-.24.18-.49.35-.75.52l0,0c-.53.35-1.09.69-1.68,1h0l-.89.44h0c-.31.14-.61.27-.92.38-.31-.91-.58-1.78-.82-2.59l-.36-1.27h0c-.17-.6-.31-1.16-.43-1.62a1.94,1.94,0,0,0,.68-.39h0a1.76,1.76,0,0,0,.3-.31,2.53,2.53,0,0,0,.13-.22c0-.06.07-.11.1-.18s0,0,0-.06a2.29,2.29,0,0,0,.17-.87,2.08,2.08,0,0,0-1.34-2h0a1.78,1.78,0,0,0-.47-.06,1.53,1.53,0,0,0-.64.14h0a2,2,0,0,0-.93,1v0a2.16,2.16,0,0,0-.21,1A2.06,2.06,0,0,0,74.1,26.9C73.56,28.54,73,30,72.48,31.42c-.17.46-.35.89-.53,1.32l-.17.39h0l-.4-.07-.18,0L70.82,33l-.25-.07-.28-.09-.35-.12-.2-.08A8.94,8.94,0,0,1,68,31.67h0c-.19-.13-.37-.27-.56-.42l0,0-.54-.46,0,0c-.18-.16-.36-.33-.54-.52h0a20.05,20.05,0,0,1-3.69-5.7v0c-.16-.35-.32-.71-.47-1.08,0,0,0,0,0,0A47.91,47.91,0,0,1,60,16.6a.94.94,0,0,1,0-.16q-.18-.68-.33-1.38c0-.12-.06-.24-.08-.36-.1-.42-.19-.84-.28-1.28L59.14,13l-.24-1.27c0-.18-.07-.35-.1-.53-.08-.43-.15-.87-.23-1.31l-.09-.56c-.08-.47-.15-.95-.22-1.44,0-.17,0-.33-.08-.51-.09-.66-.18-1.33-.27-2a1.29,1.29,0,0,0,0-.25,1.93,1.93,0,0,0,.82-.44,2.65,2.65,0,0,0,.92-2.09A2.63,2.63,0,0,0,58.43.31,1.74,1.74,0,0,0,57.37,0a1.88,1.88,0,0,0-1.28.51,2.67,2.67,0,0,0-.89,2.08A2.48,2.48,0,0,0,57,5.07a2.79,2.79,0,0,0,0,.32v0A100.34,100.34,0,0,1,55.3,16c-2.15,9.84-5.39,14.65-8.87,16.57-.36-.65-.69-1.28-1-1.88a2.44,2.44,0,0,1-.14-.28c-.06-.11-.12-.23-.17-.34l-.3-.61c-.09-.19-.18-.38-.26-.57-.27-.59-.5-1.11-.7-1.58a1.52,1.52,0,0,0,.57-.47h0a2.13,2.13,0,0,0,.47-1v-.07a2.31,2.31,0,0,0,0-.37,2,2,0,0,0-1.83-2.07,1.47,1.47,0,0,0-.41.07l-.22.08a1.49,1.49,0,0,0-.49.34,2.26,2.26,0,0,0-.37.48h0a2.27,2.27,0,0,0-.28,1.14,2.18,2.18,0,0,0,.31,1.12,1.83,1.83,0,0,0,1.38.91c-.13,1.79-.26,3.45-.43,5,0,.19,0,.38-.07.57s0,.39-.08.59a5.48,5.48,0,0,1-.7,0l-.4,0c-.23,0-.46,0-.68-.09l-.31-.05c-.32-.06-.63-.13-1-.22a17.68,17.68,0,0,1-5-2.45A28.92,28.92,0,0,1,29,26c-1.39,10.93-3.38,17.16-6,20a1.17,1.17,0,0,1-.2.19c-.74-.64-1.44-1.3-2.11-2A57.39,57.39,0,0,1,15.41,38,44.53,44.53,0,0,1,16,45.76c0,.39,0,.79,0,1.16-3.5-1.79-7.53-6-12.08-11.36h0l0,0h0a2.8,2.8,0,0,0,.6-1.79,2.78,2.78,0,0,0-.57-1.67,2.1,2.1,0,0,0-1.41-.84,1.14,1.14,0,0,0-.26,0,1.45,1.45,0,0,0-.29,0A2.47,2.47,0,0,0,0,33.8,1.11,1.11,0,0,0,0,34a2.66,2.66,0,0,0,1,1.94,1.94,1.94,0,0,0,.74.35l.05,0h.05a2.58,2.58,0,0,0,.4,0h0a1.78,1.78,0,0,0,.56-.1h0A1.89,1.89,0,0,0,3.3,36l0,0,0,.05,0,.06h0A67.57,67.57,0,0,1,8.33,49.37h0l.57,2.25c.19.79.36,1.54.52,2.22s.31,1.44.44,2h0c.05.26.1.51.14.73v0a1.25,1.25,0,0,0,0,.19c.21,1.15.32,1.81.32,1.81v0h0C10.4,62.3,31.77,65,58.08,64.57s47.63-3.68,47.59-7.35h0a1.13,1.13,0,0,0-.27-.69,1.2,1.2,0,0,1,.24.46s0,.09,0,.14,0,.06,0,.1.18-1.34.57-3.46h0c.11-.59.23-1.25.38-2,0-.09,0-.18.05-.27s.08-.36.11-.54c.31-1.44.68-3,1.13-4.74h0a70,70,0,0,1,3.6-10.53l.12-.25c.15-.33.3-.65.46-1l.15-.31s0,0,0,0l.13.1h0a2,2,0,0,0,.61.27h0l.08,0a.86.86,0,0,0,.17,0,.78.78,0,0,0,.21,0h0a1.55,1.55,0,0,0,.31,0A2.38,2.38,0,0,0,115.7,32.6ZM11.55,57.13l.14-.09.09,0a3.13,3.13,0,0,0-.36.22A.57.57,0,0,1,11.55,57.13Zm.66-.38.2-.09,0,0-.4.2ZM99.76,54.1l.13,0-.13,0ZM13.14,56.34l0,0,.3-.12-.42.17Zm1.45-.53-.74.25Zm.34-.11h0l-.06,0Zm85.22-1.5.07,0,.29.07.4.1.13,0C100.76,54.35,100.46,54.27,100.15,54.2Zm1.29.35.19.05.31.1-.52-.16Zm-91,3.61a.79.79,0,0,1,.14-.23,1.21,1.21,0,0,0-.23.45A1,1,0,0,1,10.47,58.16Zm.68-.76,0,0,0,0a3.92,3.92,0,0,0-.42.36A3.45,3.45,0,0,1,11.15,57.4Z"/></g></g></g></svg>