<svg xmlns="http://www.w3.org/2000/svg" xmlns:xlink="http://www.w3.org/1999/xlink" viewBox="0 0 112.41 128.37"><defs><style>.cls-1{mask:url(#mask);filter:url(#luminosity-noclip-3);}.cls-2,.cls-4,.cls-6{mix-blend-mode:multiply;}.cls-2{fill:url(#linear-gradient);}.cls-3{mask:url(#mask-2);filter:url(#luminosity-noclip-4);}.cls-4{fill:url(#linear-gradient-2);}.cls-5{isolation:isolate;}.cls-42,.cls-6{opacity:0.7;}.cls-42,.cls-47,.cls-48,.cls-7{fill:#fff;}.cls-7{opacity:0;}.cls-8{fill:#fbf9f8;opacity:0.05;}.cls-9{fill:#f7f3f0;opacity:0.1;}.cls-10{fill:#f3ede9;opacity:0.14;}.cls-11{fill:#eee7e2;opacity:0.19;}.cls-12{fill:#eae1db;opacity:0.24;}.cls-13{fill:#e6dcd3;opacity:0.29;}.cls-14{fill:#e2d6cc;opacity:0.33;}.cls-15{fill:#ded0c5;opacity:0.38;}.cls-16{fill:#dacabd;opacity:0.43;}.cls-17{fill:#d6c4b6;opacity:0.48;}.cls-18{fill:#d1beaf;opacity:0.52;}.cls-19{fill:#cdb8a8;opacity:0.57;}.cls-20{fill:#c9b2a0;opacity:0.62;}.cls-21{fill:#c5ac99;opacity:0.67;}.cls-22{fill:#c1a692;opacity:0.71;}.cls-23{fill:#bda18a;opacity:0.76;}.cls-24{fill:#b99b83;opacity:0.81;}.cls-25{fill:#b4957c;opacity:0.86;}.cls-26{fill:#b08f75;opacity:0.9;}.cls-27{fill:#ac896d;opacity:0.95;}.cls-28{fill:#a88366;}.cls-29{fill:url(#linear-gradient-3);}.cls-30,.cls-31{fill:gray;}.cls-30,.cls-31,.cls-49{mix-blend-mode:color-burn;}.cls-30,.cls-47{opacity:0.3;}.cls-31,.cls-49{opacity:0.2;}.cls-32{fill:url(#linear-gradient-4);}.cls-33{fill:url(#linear-gradient-5);}.cls-34{fill:url(#linear-gradient-6);}.cls-35{fill:url(#linear-gradient-7);}.cls-36{fill:url(#linear-gradient-8);}.cls-37{fill:#ffbd26;}.cls-38{fill:url(#linear-gradient-9);}.cls-39{fill:url(#linear-gradient-10);}.cls-40{fill:url(#linear-gradient-11);}.cls-41{fill:url(#linear-gradient-12);}.cls-42,.cls-44,.cls-46,.cls-47,.cls-48{mix-blend-mode:soft-light;}.cls-43{mask:url(#mask-3);}.cls-44,.cls-46{opacity:0.8;}.cls-44{fill:url(#linear-gradient-13);}.cls-45{mask:url(#mask-4);}.cls-46{fill:url(#linear-gradient-14);}.cls-48{opacity:0.4;}.cls-49{fill:url(#radial-gradient);}.cls-50{filter:url(#luminosity-noclip-2);}.cls-51{filter:url(#luminosity-noclip);}</style><filter id="luminosity-noclip" x="36.74" y="-8397.17" width="10.54" height="32766" filterUnits="userSpaceOnUse" color-interpolation-filters="sRGB"><feFlood flood-color="#fff" result="bg"/><feBlend in="SourceGraphic" in2="bg"/></filter><mask id="mask" x="36.74" y="-8397.17" width="10.54" height="32766" maskUnits="userSpaceOnUse"><g class="cls-51"/></mask><linearGradient id="linear-gradient" x1="36.74" y1="22.79" x2="47.29" y2="22.79" gradientUnits="userSpaceOnUse"><stop offset="0"/><stop offset="1" stop-color="#fff"/></linearGradient><filter id="luminosity-noclip-2" x="66.78" y="-8397.17" width="16.05" height="32766" filterUnits="userSpaceOnUse" color-interpolation-filters="sRGB"><feFlood flood-color="#fff" result="bg"/><feBlend in="SourceGraphic" in2="bg"/></filter><mask id="mask-2" x="66.78" y="-8397.17" width="16.05" height="32766" maskUnits="userSpaceOnUse"><g class="cls-50"/></mask><linearGradient id="linear-gradient-2" x1="66.78" y1="26.27" x2="82.84" y2="26.27" xlink:href="#linear-gradient"/><linearGradient id="linear-gradient-3" x1="35.41" y1="30.48" x2="-16.49" y2="36.18" gradientUnits="userSpaceOnUse"><stop offset="0" stop-color="#e07022"/><stop offset="1" stop-color="#ffbb26"/></linearGradient><linearGradient id="linear-gradient-4" x1="27.11" y1="34.09" x2="-5.05" y2="-13.73" gradientUnits="userSpaceOnUse"><stop offset="0.01" stop-color="#ffa11f"/><stop offset="1" stop-color="#ffe226"/></linearGradient><linearGradient id="linear-gradient-5" x1="72.55" y1="32.54" x2="111.07" y2="32.54" xlink:href="#linear-gradient-3"/><linearGradient id="linear-gradient-6" x1="73.89" y1="32.25" x2="112.41" y2="32.25" xlink:href="#linear-gradient-4"/><linearGradient id="linear-gradient-7" x1="27.53" y1="32.84" x2="85.39" y2="32.84" gradientUnits="userSpaceOnUse"><stop offset="0" stop-color="#ffad39"/><stop offset="0.44" stop-color="#ffbd26"/><stop offset="1" stop-color="#ffe226"/></linearGradient><linearGradient id="linear-gradient-8" x1="23.9" y1="2.27" x2="89.01" y2="2.27" xlink:href="#linear-gradient-7"/><linearGradient id="linear-gradient-9" x1="46.74" y1="63.76" x2="66.17" y2="63.76" gradientUnits="userSpaceOnUse"><stop offset="0" stop-color="#ff8c28"/><stop offset="0.44" stop-color="#ffbd26"/><stop offset="1" stop-color="#ffe226"/></linearGradient><linearGradient id="linear-gradient-10" x1="51.02" y1="80" x2="68.49" y2="79.77" gradientUnits="userSpaceOnUse"><stop offset="0" stop-color="#ff9130"/><stop offset="0.44" stop-color="#ffbd26"/><stop offset="1" stop-color="#ffe226"/></linearGradient><linearGradient id="linear-gradient-11" x1="42.88" y1="111.79" x2="70.03" y2="111.79" gradientUnits="userSpaceOnUse"><stop offset="0" stop-color="#ffa526"/><stop offset="0.44" stop-color="#ffbd26"/><stop offset="1" stop-color="#ffe226"/></linearGradient><linearGradient id="linear-gradient-12" x1="26.28" y1="118.94" x2="86.63" y2="118.94" xlink:href="#linear-gradient-10"/><filter id="luminosity-noclip-3" x="36.74" y="8.92" width="10.54" height="27.74" filterUnits="userSpaceOnUse" color-interpolation-filters="sRGB"><feFlood flood-color="#fff" result="bg"/><feBlend in="SourceGraphic" in2="bg"/></filter><mask id="mask-3" x="36.74" y="8.92" width="10.54" height="27.74" maskUnits="userSpaceOnUse"><g class="cls-1"><path class="cls-2" d="M47.29,36.66S41.17,22.54,42.36,8.92H36.74s1.44,18.55,10.55,27.74Z"/></g></mask><linearGradient id="linear-gradient-13" x1="36.74" y1="22.79" x2="47.29" y2="22.79" gradientUnits="userSpaceOnUse"><stop offset="0" stop-color="#fff"/><stop offset="1" stop-color="#fff"/></linearGradient><filter id="luminosity-noclip-4" x="66.78" y="8.92" width="16.05" height="34.71" filterUnits="userSpaceOnUse" color-interpolation-filters="sRGB"><feFlood flood-color="#fff" result="bg"/><feBlend in="SourceGraphic" in2="bg"/></filter><mask id="mask-4" x="66.78" y="8.92" width="16.05" height="34.71" maskUnits="userSpaceOnUse"><g class="cls-3"><path class="cls-4" d="M66.78,43.63a1.23,1.23,0,0,0,.06-.43c.24-4-.06-34.28-.06-34.28h16S83.12,41.08,66.78,43.63Z"/></g></mask><linearGradient id="linear-gradient-14" x1="66.78" y1="26.27" x2="82.84" y2="26.27" xlink:href="#linear-gradient-13"/><radialGradient id="radial-gradient" cx="56.2" cy="60.83" r="58.56" gradientUnits="userSpaceOnUse"><stop offset="0" stop-color="#fff"/><stop offset="0.17" stop-color="#f0f0f0"/><stop offset="0.48" stop-color="#c9c9c9"/><stop offset="0.92" stop-color="#8a8a8a"/><stop offset="1" stop-color="#7d7d7d"/></radialGradient></defs><g class="cls-5"><g id="Layer_2" data-name="Layer 2"><g id="Layer_1-2" data-name="Layer 1"><g class="cls-6"><ellipse class="cls-7" cx="56" cy="121.67" rx="43.4" ry="6.7"/><ellipse class="cls-8" cx="56" cy="121.67" rx="41.74" ry="6.41"/><ellipse class="cls-9" cx="56" cy="121.67" rx="40.07" ry="6.11"/><path class="cls-10" d="M94.41,121.67c0,3.21-17.2,5.82-38.41,5.82s-38.4-2.61-38.4-5.82,17.19-5.82,38.4-5.82S94.41,118.46,94.41,121.67Z"/><ellipse class="cls-11" cx="56" cy="121.67" rx="36.74" ry="5.52"/><ellipse class="cls-12" cx="56" cy="121.67" rx="35.07" ry="5.23"/><ellipse class="cls-13" cx="56" cy="121.67" rx="33.41" ry="4.93"/><ellipse class="cls-14" cx="56" cy="121.67" rx="31.74" ry="4.64"/><ellipse class="cls-15" cx="56" cy="121.67" rx="30.08" ry="4.35"/><ellipse class="cls-16" cx="56" cy="121.67" rx="28.41" ry="4.05"/><ellipse class="cls-17" cx="56" cy="121.67" rx="26.75" ry="3.76"/><ellipse class="cls-18" cx="56" cy="121.67" rx="25.08" ry="3.46"/><ellipse class="cls-19" cx="56" cy="121.67" rx="23.42" ry="3.17"/><ellipse class="cls-20" cx="56" cy="121.67" rx="21.75" ry="2.87"/><path class="cls-21" d="M76.09,121.67c0,1.42-9,2.58-20.09,2.58s-20.09-1.16-20.09-2.58,9-2.58,20.09-2.58S76.09,120.25,76.09,121.67Z"/><ellipse class="cls-22" cx="56" cy="121.67" rx="18.42" ry="2.29"/><ellipse class="cls-23" cx="56" cy="121.67" rx="16.76" ry="1.99"/><ellipse class="cls-24" cx="56" cy="121.67" rx="15.09" ry="1.7"/><ellipse class="cls-25" cx="56" cy="121.67" rx="13.43" ry="1.4"/><ellipse class="cls-26" cx="56" cy="121.67" rx="11.76" ry="1.11"/><ellipse class="cls-27" cx="56" cy="121.67" rx="10.1" ry="0.81"/><ellipse class="cls-28" cx="56" cy="121.67" rx="8.43" ry="0.52"/></g><path class="cls-29" d="M36.11,59.12a.52.52,0,0,1-.1.11,5.81,5.81,0,0,1-1.89,1.45,4.74,4.74,0,0,1-1.95.44,4.94,4.94,0,0,1-1-.11l2.29-4a8.7,8.7,0,0,0,1.32-7.46c-.56-1.63-1.59-1.82-1.93-1.88l-.14,0a42.17,42.17,0,0,1-17.08-9.35c-.76-.68-1.5-1.39-2.21-2.13s-1.54-1.64-2.27-2.51a45.79,45.79,0,0,1-4.42-6.29A49,49,0,0,1,.15,6.39L0,4.55.91,4l19.18.59L20,6.33s-.15,4.85,2.64,7.82a7,7,0,0,0,2.26,1.6,9.63,9.63,0,0,0,3.75.79l.9,3.7a22.55,22.55,0,0,1-4.65-.85,10.56,10.56,0,0,1-4.75-2.94A14.43,14.43,0,0,1,16.68,8h-13a45.73,45.73,0,0,0,3,11.7A44.06,44.06,0,0,0,11.15,28c.71,1.06,1.47,2.07,2.27,3s1.44,1.71,2.21,2.52A39,39,0,0,0,33.54,44.3a7.84,7.84,0,0,1,.83.23A6,6,0,0,1,38,48.41,12.08,12.08,0,0,1,36.11,59.12Z"/><polygon class="cls-30" points="18.15 6.84 16.68 7.95 4.03 7.95 3.47 5.95 18.15 6.84"/><path class="cls-31" d="M36.11,59.12a.52.52,0,0,1-.1.11,5.81,5.81,0,0,1-1.89,1.45,4.74,4.74,0,0,1-1.95.44,4.94,4.94,0,0,1-1-.11l.9-.58Z"/><path class="cls-32" d="M36.92,58.64A5.81,5.81,0,0,1,35,60.09a4.59,4.59,0,0,1-2,.44,4.94,4.94,0,0,1-1-.1l2.3-4a8.71,8.71,0,0,0,1.32-7.45c-.57-1.64-1.59-1.83-1.94-1.89l-.13,0a42.26,42.26,0,0,1-17.09-9.34c-.76-.69-1.49-1.4-2.21-2.13S12.78,33.9,12.06,33a46.47,46.47,0,0,1-4.43-6.29A49.09,49.09,0,0,1,1.05,5.8L.91,4H21l-.07,1.78s-.15,4.85,2.64,7.82a7.12,7.12,0,0,0,2.25,1.61,9.71,9.71,0,0,0,3.75.78l-.08,3.41a14.11,14.11,0,0,1-3.67-.56,10.51,10.51,0,0,1-4.75-2.93,14.56,14.56,0,0,1-3.48-8.5H4.63a46.24,46.24,0,0,0,3,11.7,44.14,44.14,0,0,0,4.43,8.32c.71,1.05,1.47,2.07,2.26,3s1.44,1.71,2.21,2.51A39.19,39.19,0,0,0,34.44,43.72a4.41,4.41,0,0,1,.83.23,6,6,0,0,1,3.64,3.87A12.06,12.06,0,0,1,36.92,58.64Z"/><path class="cls-30" d="M36.92,58.64A5.81,5.81,0,0,1,35,60.09c3.51-6.28,1.6-12.91.24-16.14a6,6,0,0,1,3.64,3.87A12.06,12.06,0,0,1,36.92,58.64Z"/><path class="cls-30" d="M25.81,15.17a9.71,9.71,0,0,0,3.75.78l-.08,3.41a14.11,14.11,0,0,1-3.67-.56Z"/><path class="cls-33" d="M111.07,4.55l-.15,1.84a49.19,49.19,0,0,1-5.48,19c-.61,1.15-1.25,2.25-1.94,3.34s-1.39,2.1-2.15,3.11a46.9,46.9,0,0,1-4,4.59,42.39,42.39,0,0,1-19,11.2l-.13,0c-.34.06-1.37.25-1.94,1.88A9.05,9.05,0,0,0,76.92,56a5.49,5.49,0,0,0,.68,1l3.64,3.45L79.9,61a4.94,4.94,0,0,1-1,.11,4.75,4.75,0,0,1-1.49-.25A5.55,5.55,0,0,1,76,60.13a6.35,6.35,0,0,1-1-.9,12.06,12.06,0,0,1-2-10.82,5.93,5.93,0,0,1,3.93-4l.53-.13A39.38,39.38,0,0,0,97.39,31.35a44.07,44.07,0,0,0,4-5.63,40,40,0,0,0,2.15-4.11,44.35,44.35,0,0,0,1.94-5,46.12,46.12,0,0,0,1.9-8.7h-13a14.5,14.5,0,0,1-3.48,8.5,10.53,10.53,0,0,1-4.84,3,13.92,13.92,0,0,1-3.58.53l-.08-3.4a9.85,9.85,0,0,0,3.66-.75,6.92,6.92,0,0,0,2.36-1.66c2.75-2.94,2.63-7.76,2.63-7.8L91,4.55,92.32,4Z"/><polygon class="cls-31" points="108.94 7.18 107.34 7.95 94.47 7.95 94.47 6.33 108.94 7.18"/><path class="cls-34" d="M112.41,4l-.15,1.84a49.19,49.19,0,0,1-5.48,19c-.61,1.14-1.25,2.25-1.93,3.33s-1.4,2.11-2.16,3.11a46.9,46.9,0,0,1-4,4.59,42.28,42.28,0,0,1-19,11.2l-.13,0c-.34.06-1.37.25-1.93,1.89a9.06,9.06,0,0,0,.63,6.44,4.72,4.72,0,0,0,.69,1l2.29,4a4.92,4.92,0,0,1-1,.1,4.53,4.53,0,0,1-1.49-.25,5.51,5.51,0,0,1-1.37-.73,6,6,0,0,1-1-.91,12.09,12.09,0,0,1-2-10.82,5.89,5.89,0,0,1,3.94-4,4.39,4.39,0,0,1,.52-.13,39.4,39.4,0,0,0,19.86-13,43.37,43.37,0,0,0,4-5.63,42,42,0,0,0,2.16-4.1,46.32,46.32,0,0,0,1.93-5,45.51,45.51,0,0,0,1.9-8.7h-13a14.5,14.5,0,0,1-3.48,8.5,10.43,10.43,0,0,1-4.84,3,13.91,13.91,0,0,1-3.58.54L83.75,16a9.47,9.47,0,0,0,3.66-.75,6.89,6.89,0,0,0,2.36-1.65c2.76-3,2.63-7.76,2.63-7.81L92.32,4Z"/><path class="cls-30" d="M77.38,59.55a6,6,0,0,1-1-.91,12.09,12.09,0,0,1-2-10.82,5.89,5.89,0,0,1,3.94-4C76.86,46.69,74.38,53,77.38,59.55Z"/><path class="cls-31" d="M87.41,15.2v3.62a13.91,13.91,0,0,1-3.58.54L83.75,16A9.47,9.47,0,0,0,87.41,15.2Z"/><path class="cls-35" d="M85.39,1.7c0,1.44,0,3-.1,4.54,0,.67-.06,1.35-.1,2a126,126,0,0,1-5.92,31.83C74.71,53.41,67.37,64,56.46,64,36.89,64,28.83,30.07,27.67,7.28c0-.35,0-.7-.05-1-.06-1.58-.09-3.1-.09-4.54Z"/><path class="cls-31" d="M79.27,40.11C76,49.72,71.24,57.9,64.75,61.7A16.11,16.11,0,0,1,56.46,64C36.89,64,28.83,30.07,27.67,7.28c0-.35,0-.7-.05-1-.06-1.58-.09-3.1-.09-4.54H45.82L45,5S47.64,69.65,79.27,40.11Z"/><path class="cls-31" d="M65.35,61.33h0C42.61,53,34.7,17,32.34,1.7H29.22c0,1.45,0,3,.1,4.55,0,.34,0,.68,0,1,1.15,22.46,9,55.73,28,56.68Z"/><path class="cls-30" d="M85.39,1.7c0,1.44,0,3-.1,4.54,0,.67-.06,1.35-.1,2a341.83,341.83,0,0,0-38.47-2c-12,0-17.06.51-19,1,0-.35,0-.7-.05-1-.06-1.58-.09-3.1-.09-4.54Z"/><polygon class="cls-36" points="89.01 0 88.53 1.61 87.65 4.54 25.26 4.54 23.9 0 89.01 0"/><path class="cls-37" d="M66.2,66l-.54.45a19.73,19.73,0,0,0-2.06,2.1,3.37,3.37,0,0,0-.88,1.79A19.88,19.88,0,0,1,62,75.83a13.14,13.14,0,0,1-.65,1.8,2.72,2.72,0,0,1-.11.25c-.11.23-.21.46-.33.67C59.75,80.66,58.18,82,56.46,82a4,4,0,0,1-2.62-1.06,8.72,8.72,0,0,1-2.14-3,18.37,18.37,0,0,1-1.51-7.58c0-1.53-3.47-4.34-3.47-4.34l0-.08,1.34-4.23H64.83l.68,2.15L66,65.35l.17.53Z"/><polygon class="cls-38" points="66.17 65.88 46.74 65.88 48.08 61.65 64.83 61.65 65.51 63.8 66 65.35 66.17 65.88"/><path class="cls-31" d="M53.84,80.9c-2.15-1.84-3.65-5.89-3.65-10.6,0-1.53-3.47-4.34-3.47-4.34l1.36-4.31H64.83s-17,.76-13.16,4.79c.26.68,3,.85,3,.85s-2.55,9.86.85,10.59C57.13,78.23,55.73,79.58,53.84,80.9Z"/><path class="cls-39" d="M62.36,82H50.55l1.15-4.08h9.51l.29,1.05.67,2.49Z"/><polygon class="cls-37" points="65.08 111 47.83 111 50.55 81.96 62.36 81.96 62.41 82.53 65.08 111"/><path class="cls-40" d="M70,112.59c-1.57-.12-3.23-.21-5-.28h0q-3.21-.14-6.68-.17h-1.9l-3.25,0c-2.37,0-4.65.12-6.82.23q-1.83.09-3.54.21L43.3,111H69.61l.11.42Z"/><rect class="cls-41" x="26.28" y="116.22" width="60.35" height="5.45"/><path class="cls-37" d="M86.63,116.22H26.28c.43-1.59,7.07-3,16.6-3.63,3.16-.23,6.65-.38,10.32-.44l3.29,0c4.87,0,9.47.17,13.54.46a86.65,86.65,0,0,1,11.71,1.47,23,23,0,0,1,2.55.67C85.67,115.19,86.49,115.69,86.63,116.22Z"/><path class="cls-42" d="M66.2,66l-.54.45c-3.59,0-8.62-.22-10.37-.24a24.43,24.43,0,0,0,2.93-.29,37.29,37.29,0,0,0,7.29-2.08L66,65.35l.17.53Z"/><path class="cls-42" d="M62.41,82.53c-2.13-.14-8-.57-8-.57l7.8-.54.19.54Z"/><polygon class="cls-42" points="69.72 111.42 65.88 111 69.61 111 69.72 111.42"/><polygon class="cls-42" points="89.01 0 88.53 1.61 40.41 0 89.01 0"/><polygon class="cls-30" points="55.5 77.88 54.51 81.96 50.55 81.96 51.7 77.88 55.5 77.88"/><polygon class="cls-31" points="54.51 81.96 53.06 111 52.76 111 47.83 111 50.55 81.96 54.51 81.96"/><path class="cls-31" d="M52.18,4.54H25.26L23.9,0H35.46C34.21.83,30.6,4.13,52.18,4.54Z"/><polygon class="cls-31" points="29.16 4.54 25.26 4.54 23.9 0 27.17 0 29.16 4.54"/><g class="cls-43"><path class="cls-44" d="M47.29,36.66S41.17,22.54,42.36,8.92H36.74s1.44,18.55,10.55,27.74Z"/></g><path class="cls-30" d="M53.24,112.15c-2.37,0-4.65.12-6.82.23L47.83,111h5.24Z"/><path class="cls-31" d="M46.42,112.38s-8.78,2.39-8.78,3.84h10.8s1.83-3.61,4.8-4.07Z"/><rect class="cls-30" x="37.64" y="116.22" width="10.79" height="5.45"/><g class="cls-45"><path class="cls-46" d="M66.78,43.63a1.23,1.23,0,0,0,.06-.43c.24-4-.06-34.28-.06-34.28h16S83.12,41.08,66.78,43.63Z"/></g><path class="cls-42" d="M66.22,44.14c.25-4,0-34.28,0-34.28h6.38C72.53,16.91,71.93,35.73,66.22,44.14Z"/><rect class="cls-42" x="56.46" width="12.1" height="4.54"/><rect class="cls-42" x="71.5" width="3.18" height="4.54"/><rect class="cls-42" x="98.73" y="3.96" width="3.97" height="3.4"/><path class="cls-42" d="M102.69,25.13v6.1a46.9,46.9,0,0,1-4,4.59V30.76A43.37,43.37,0,0,0,102.69,25.13Z"/><rect class="cls-42" x="104.85" y="3.96" width="1.93" height="3.4"/><path class="cls-42" d="M106.78,16.07v8.72c-.61,1.14-1.25,2.25-1.93,3.33V21A46.32,46.32,0,0,0,106.78,16.07Z"/><rect class="cls-42" x="7.63" y="3.96" width="4.43" height="3.4"/><path class="cls-42" d="M12.06,27.39V33a46.47,46.47,0,0,1-4.43-6.29V19.07A44.14,44.14,0,0,0,12.06,27.39Z"/><rect class="cls-42" x="14.32" y="3.96" width="2.21" height="3.4"/><path class="cls-42" d="M16.53,32.94v4.74c-.76-.69-1.49-1.4-2.21-2.13V30.43C15,31.3,15.76,32.14,16.53,32.94Z"/><path class="cls-42" d="M81.24,60.43a4.92,4.92,0,0,1-1,.1,4.53,4.53,0,0,1-1.49-.25,27.94,27.94,0,0,1-.49-4.9,4.72,4.72,0,0,0,.69,1Z"/><polygon class="cls-42" points="63.59 111 58.39 111 59.65 88.31 63.59 111"/><polygon class="cls-42" points="56.92 111 56.12 111 56.12 88.31 56.92 111"/><path class="cls-47" d="M65.08,112.31h0q-3.21-.14-6.68-.17V111h5.2Z"/><polygon class="cls-47" points="56.92 111 57.37 112.13 55.89 112.13 56.12 111 56.92 111"/><path class="cls-48" d="M65.08,112.31s6.55,1.4,8.4,3.91H62.88a9.26,9.26,0,0,0-4.49-4.08Z"/><path class="cls-47" d="M57.37,112.13a5.46,5.46,0,0,1,2.83,4.15c0-.06-2.38-.06-2.38-.06a6,6,0,0,0-1.93-4.09Z"/><rect class="cls-47" x="57.83" y="116.22" width="2.38" height="5.45"/><rect class="cls-47" x="62.88" y="116.22" width="10.6" height="5.45"/><path class="cls-47" d="M86.63,116.22v3.35c-.5-2.06-7.31-3.35-7.9-3.35a12.84,12.84,0,0,0,5.56-1.49C85.67,115.19,86.49,115.69,86.63,116.22Z"/><path class="cls-31" d="M86.63,121.66H26.28v-5.44H42.4S26.74,121.66,86.63,121.66Z"/><path class="cls-31" d="M86.63,116.22H26.28c.43-1.59,7.07-3,16.6-3.63,3.16-.23,6.65-.38,10.32-.44C53,113.19,55.18,116.18,86.63,116.22Z"/><path class="cls-31" d="M57.33,69.42c1.62.83,4.92,4.43,1.7,8.11a11.26,11.26,0,0,1-1.7.35,8.79,8.79,0,0,1,3.55.67,2.79,2.79,0,0,1,.62.38l-.29-1.05c0-.08.07-.17.11-.25h0l.15-.37c.06-.14.12-.28.17-.43.12-.32.23-.66.33-1a19.88,19.88,0,0,0,.75-5.53,3.37,3.37,0,0,1,.88-1.79A21.2,21.2,0,0,1,57.33,69.42Z"/><path class="cls-49" d="M106.78,4H92.32L91,4.55l.08,1.78s.12,4.86-2.63,7.8a7.1,7.1,0,0,1-1.67,1.32,9.77,9.77,0,0,1-2.24.45c.3-2.62.52-5.18.67-7.62,0-.69.07-1.37.1-2s0-1.14,0-1.7h2.31l.88-2.93L89,0H23.9l1.36,4.54h2.31c0,.56,0,1.12.05,1.7,0,.34,0,.69.05,1,.14,2.72.38,5.61.72,8.58a9.31,9.31,0,0,1-2.58-.69,7.12,7.12,0,0,1-2.25-1.61c-2.79-3-2.64-7.78-2.64-7.82L21,4H.91L0,4.55.15,6.39A49,49,0,0,0,6.73,27.33a45.79,45.79,0,0,0,4.42,6.29c.73.87,1.48,1.7,2.27,2.51s1.45,1.45,2.21,2.13a42.17,42.17,0,0,0,17.08,9.35l.14,0c.34.06,1.37.25,1.93,1.88A8.7,8.7,0,0,1,33.46,57l-2.29,4a4.94,4.94,0,0,0,1,.11,4.74,4.74,0,0,0,1.95-.44A5.41,5.41,0,0,0,35.2,60a5.86,5.86,0,0,0,1.72-1.36,11.23,11.23,0,0,0,2.42-6.15,26.88,26.88,0,0,0,8.74,9.16L46.72,66s3.47,2.81,3.47,4.34c0,.53,0,1,.07,1.56,0,.1,0,.2,0,.3,0,.49.1,1,.17,1.44,0,.08,0,.16,0,.24.08.43.16.85.26,1.26,0,.06,0,.13,0,.19a11.88,11.88,0,0,0,.36,1.2c0,.13.08.25.13.37.12.32.24.63.37.92a.42.42,0,0,1,0,.1h0L50.55,82l-2.72,29H43.3l-.42,1.59,2.07-.13-2.07.13c-9.53.67-16.17,2-16.6,3.63v5.44H86.63v-5.44c-.14-.53-1-1-2.34-1.49a23,23,0,0,0-2.55-.67A86.65,86.65,0,0,0,70,112.59c-.92-.07-1.87-.12-2.84-.18,1,0,1.92.11,2.84.18l-.31-1.17-.11-.42H65.08L62.41,82.53l0-.57-.19-.54-.67-2.49-.29-1.05a2.72,2.72,0,0,0,.11-.25,13.14,13.14,0,0,0,.65-1.8,19.88,19.88,0,0,0,.75-5.53,3.37,3.37,0,0,1,.88-1.79,19.73,19.73,0,0,1,2.06-2.1L66.2,66l0-.08L66,65.35l-.49-1.55-.67-2.15.49-.31h0l.48-.31.33-.23c.25-.18.5-.36.74-.56l.3-.23c.32-.25.62-.52.93-.8l.31-.29c.22-.2.44-.42.66-.63l.33-.34c.28-.3.57-.61.85-.93l.26-.31.62-.75.33-.42.66-.89.3-.42.29-.42a10.92,10.92,0,0,0,2.32,5.43,6.35,6.35,0,0,0,1,.9,5.55,5.55,0,0,0,1.37.74,4.75,4.75,0,0,0,1.49.25,4.94,4.94,0,0,0,1-.11l1.34-.58-2.29-4a4.72,4.72,0,0,1-.69-1,9.06,9.06,0,0,1-.63-6.44,3.26,3.26,0,0,1,.84-1.37,40.51,40.51,0,0,0,6.06-2.2,42.78,42.78,0,0,0,14.2-9.55,46.9,46.9,0,0,0,4-4.59c.76-1,1.47-2,2.16-3.11s1.32-2.19,1.93-3.33a49.19,49.19,0,0,0,5.48-19L112.41,4ZM16.68,8a14.43,14.43,0,0,0,3.48,8.5,10.56,10.56,0,0,0,4.75,2.94A25.31,25.31,0,0,0,29,20.2a107.12,107.12,0,0,0,6.08,23.69,4.24,4.24,0,0,0-.61-.17A39.19,39.19,0,0,1,16.53,32.94c-.77-.8-1.51-1.64-2.21-2.51s-1.55-2-2.26-3a44.14,44.14,0,0,1-4.43-8.32A45.94,45.94,0,0,1,4.72,8ZM78.87,43.72a4.39,4.39,0,0,0-.52.13,5.1,5.1,0,0,0-.55.19c0-.11.09-.22.14-.34s.07-.18.11-.28c.17-.42.33-.86.49-1.29l.17-.44c.19-.52.37-1,.56-1.58A115.21,115.21,0,0,0,84,19.83a13.3,13.3,0,0,0,2.07-.42,10.88,10.88,0,0,0,2-.83,10.4,10.4,0,0,0,4.17-2.71A14.15,14.15,0,0,0,95.66,8h11.68a46.12,46.12,0,0,1-1.9,8.7,44.35,44.35,0,0,1-1.94,5,40,40,0,0,1-2.15,4.11,44.07,44.07,0,0,1-4,5.63,40,40,0,0,1-14,10.81A39,39,0,0,1,78.87,43.72ZM64.68,112.3h-.3l.64,0ZM59,112.15h-.58l1.07,0Zm1.88,0,1.81,0Zm-10.93.06h0Zm-3.5.14h0l-.44,0Zm19.81,0-1.11-.05h0Z"/></g></g></g></svg>